# xmcd CD database file
#
# Track frame offsets:
#	150
#	25652
#	43755
#	62255
#	77242
#	99585
#	113512
#	130130
#	168662
#	181825
#	192522
#	211700
#	224737
#	245192
#
# Disc length: 3707 seconds
#
# Revision: 0
# Processed by: cddbd v1.5.1PL2 Copyright (c) Steve Scherf et al.
# Submitted via: CDex 1.60beta1
#
DISCID=c40e790e
DTITLE=Hurricane - The Hurricane
DYEAR=2000
DGENRE=General Soundtrack
TTITLE0=Black Thought, Common, Mos Def, Dice Raw, Flo Brown, The Jazzyfatnastees and The Roots - Hurricane
TTITLE1=Black Star - Little Brother
TTITLE2=Kelly Price and Aaron Hall - Love Sets You Free
TTITLE3=Jazzyfatnastees - I Don't Know
TTITLE4=Me'Shell Ndegeocello - Isolation
TTITLE5=Gil Scott-Heron - The Revolution Will Not Be Televised
TTITLE6=K-Ci and JoJo - One More Mountain (Free Again)
TTITLE7=Bob Dylan - Hurricane
TTITLE8=Ray Charles - Hard Times No One Knows
TTITLE9=Etta James - In The Basement
TTITLE10=Melky Sedeck - Still I Rise
TTITLE11=Ruth Brown - I Don't Know
TTITLE12=Clark Anderson - So Amazing
TTITLE13=Christopher Young - The Suite
EXTD=YEAR: 2000
EXTT0=
EXTT1=
EXTT2=
EXTT3=
EXTT4=
EXTT5=
EXTT6=
EXTT7=
EXTT8=
EXTT9=
EXTT10=
EXTT11=
EXTT12=
EXTT13=
PLAYORDER=
